<svg width="121" height="63" viewBox="0 0 121 63" fill="none" xmlns="http://www.w3.org/2000/svg">
<g filter="url(#filter0_d_28_163)">
<path d="M44 27.5C44 25.8585 43.6767 24.233 43.0485 22.7165C42.4203 21.1999 41.4996 19.8219 40.3388 18.6612C39.1781 17.5004 37.8001 16.5797 36.2835 15.9515C34.767 15.3233 33.1415 15 31.5 15C29.8585 15 28.233 15.3233 26.7165 15.9515C25.1999 16.5797 23.8219 17.5004 22.6612 18.6612C21.5004 19.8219 20.5797 21.1999 19.9515 22.7165C19.3233 24.233 19 25.8585 19 27.5L31.5 27.5H44Z" fill="#C517F1"/>
<path d="M44 27.5C44 29.1415 43.6767 30.767 43.0485 32.2835C42.4203 33.8001 41.4996 35.1781 40.3388 36.3388C39.1781 37.4996 37.8001 38.4203 36.2835 39.0485C34.767 39.6767 33.1415 40 31.5 40C29.8585 40 28.233 39.6767 26.7165 39.0485C25.1999 38.4203 23.8219 37.4996 22.6612 36.3388C21.5004 35.1781 20.5797 33.8001 19.9515 32.2835C19.3233 30.767 19 29.1415 19 27.5L31.5 27.5H44Z" fill="#014FFF"/>
</g>
<path d="M59.35 16.53H64.66V25.23L71.89 16.53H78.19L69.7 26.73L78.76 37.5H72.46L64.66 28.23V37.5H59.35V16.53ZM87.058 37.95C84.238 37.95 82.018 37.29 80.398 35.97C78.798 34.65 77.998 32.78 77.998 30.36C77.998 27.98 78.708 26.1 80.128 24.72C81.568 23.34 83.638 22.65 86.338 22.65C88.058 22.65 89.528 22.98 90.748 23.64C91.988 24.28 92.918 25.17 93.538 26.31C94.178 27.43 94.498 28.7 94.498 30.12V32.07H83.008C83.208 32.87 83.708 33.45 84.508 33.81C85.308 34.17 86.398 34.35 87.778 34.35C88.718 34.35 89.678 34.27 90.658 34.11C91.658 33.95 92.518 33.73 93.238 33.45V36.93C92.498 37.23 91.568 37.47 90.448 37.65C89.348 37.85 88.218 37.95 87.058 37.95ZM89.518 28.77C89.438 27.99 89.118 27.38 88.558 26.94C87.998 26.5 87.228 26.28 86.248 26.28C85.288 26.28 84.528 26.51 83.968 26.97C83.408 27.41 83.088 28.01 83.008 28.77H89.518ZM99.8252 43.44C99.1852 43.44 98.5152 43.39 97.8152 43.29C97.1152 43.21 96.5952 43.09 96.2552 42.93V39C96.8352 39.24 97.4952 39.36 98.2352 39.36C98.8952 39.36 99.4052 39.21 99.7652 38.91C100.145 38.63 100.445 38.18 100.665 37.56L101.025 36.6L94.7852 23.1H100.065L103.815 32.46L107.355 23.1H112.635L106.695 38.16C105.995 39.96 105.095 41.29 103.995 42.15C102.915 43.01 101.525 43.44 99.8252 43.44Z" fill="white"/>
<defs>
<filter id="filter0_d_28_163" x="0" y="0" width="63" height="63" filterUnits="userSpaceOnUse" color-interpolation-filters="sRGB">
<feFlood flood-opacity="0" result="BackgroundImageFix"/>
<feColorMatrix in="SourceAlpha" type="matrix" values="0 0 0 0 0 0 0 0 0 0 0 0 0 0 0 0 0 0 127 0" result="hardAlpha"/>
<feOffset dy="4"/>
<feGaussianBlur stdDeviation="9.5"/>
<feComposite in2="hardAlpha" operator="out"/>
<feColorMatrix type="matrix" values="0 0 0 0 1 0 0 0 0 1 0 0 0 0 1 0 0 0 0.25 0"/>
<feBlend mode="normal" in2="BackgroundImageFix" result="effect1_dropShadow_28_163"/>
<feBlend mode="normal" in="SourceGraphic" in2="effect1_dropShadow_28_163" result="shape"/>
</filter>
</defs>
</svg>
